<mxfile host="app.diagrams.net" agent="Mozilla/5.0 (Windows NT 10.0; Win64; x64) AppleWebKit/537.36 (KHTML, like Gecko) Chrome/128.0.0.0 Safari/537.36" version="24.7.13">
  <diagram name="ページ1" id="IeHySFRNI9YtKrx19TK8">
    <mxGraphModel dx="2045" dy="1091" grid="1" gridSize="10" guides="1" tooltips="1" connect="1" arrows="1" fold="1" page="1" pageScale="1" pageWidth="827" pageHeight="1169" math="0" shadow="0">
      <root>
        <mxCell id="0" />
        <mxCell id="1" parent="0" />
        <mxCell id="t9INm0RjJ8Zya-NZDCWY-1" value="AWS Cloud" style="points=[[0,0],[0.25,0],[0.5,0],[0.75,0],[1,0],[1,0.25],[1,0.5],[1,0.75],[1,1],[0.75,1],[0.5,1],[0.25,1],[0,1],[0,0.75],[0,0.5],[0,0.25]];outlineConnect=0;gradientColor=none;html=1;whiteSpace=wrap;fontSize=12;fontStyle=0;container=1;pointerEvents=0;collapsible=0;recursiveResize=0;shape=mxgraph.aws4.group;grIcon=mxgraph.aws4.group_aws_cloud_alt;strokeColor=#232F3E;fillColor=none;verticalAlign=top;align=left;spacingLeft=30;fontColor=#232F3E;dashed=0;" parent="1" vertex="1">
          <mxGeometry x="-800" y="280" width="1080" height="600" as="geometry" />
        </mxCell>
        <mxCell id="t9INm0RjJ8Zya-NZDCWY-4" value="Public subnet" style="points=[[0,0],[0.25,0],[0.5,0],[0.75,0],[1,0],[1,0.25],[1,0.5],[1,0.75],[1,1],[0.75,1],[0.5,1],[0.25,1],[0,1],[0,0.75],[0,0.5],[0,0.25]];outlineConnect=0;gradientColor=none;html=1;whiteSpace=wrap;fontSize=12;fontStyle=0;container=1;pointerEvents=0;collapsible=0;recursiveResize=0;shape=mxgraph.aws4.group;grIcon=mxgraph.aws4.group_security_group;grStroke=0;strokeColor=#7AA116;fillColor=#F2F6E8;verticalAlign=top;align=left;spacingLeft=30;fontColor=#248814;dashed=0;" parent="t9INm0RjJ8Zya-NZDCWY-1" vertex="1">
          <mxGeometry x="320" y="160" width="320" height="360" as="geometry" />
        </mxCell>
        <mxCell id="t9INm0RjJ8Zya-NZDCWY-8" value="" style="group" parent="t9INm0RjJ8Zya-NZDCWY-4" vertex="1" connectable="0">
          <mxGeometry x="40" y="40" width="240" height="120" as="geometry" />
        </mxCell>
        <mxCell id="t9INm0RjJ8Zya-NZDCWY-5" value="" style="sketch=0;points=[[0,0,0],[0.25,0,0],[0.5,0,0],[0.75,0,0],[1,0,0],[0,1,0],[0.25,1,0],[0.5,1,0],[0.75,1,0],[1,1,0],[0,0.25,0],[0,0.5,0],[0,0.75,0],[1,0.25,0],[1,0.5,0],[1,0.75,0]];outlineConnect=0;fontColor=#232F3E;fillColor=#ED7100;strokeColor=#ffffff;dashed=0;verticalLabelPosition=bottom;verticalAlign=top;align=center;html=1;fontSize=12;fontStyle=0;aspect=fixed;shape=mxgraph.aws4.resourceIcon;resIcon=mxgraph.aws4.fargate;" parent="t9INm0RjJ8Zya-NZDCWY-8" vertex="1">
          <mxGeometry width="24" height="24" as="geometry" />
        </mxCell>
        <mxCell id="t9INm0RjJ8Zya-NZDCWY-6" value="Fargate" style="fillColor=none;strokeColor=#FFB570;verticalAlign=top;fontStyle=0;fontColor=#5A6C86;whiteSpace=wrap;html=1;" parent="t9INm0RjJ8Zya-NZDCWY-8" vertex="1">
          <mxGeometry width="240" height="120" as="geometry" />
        </mxCell>
        <mxCell id="t9INm0RjJ8Zya-NZDCWY-9" value="frontend (SPA)" style="outlineConnect=0;dashed=0;verticalLabelPosition=bottom;verticalAlign=top;align=center;html=1;shape=mxgraph.aws3.ec2_compute_container;fillColor=#F58534;gradientColor=none;" parent="t9INm0RjJ8Zya-NZDCWY-8" vertex="1">
          <mxGeometry x="90" y="50" width="60" height="34.5" as="geometry" />
        </mxCell>
        <mxCell id="DQI4Vh2TIsN07EarMOOz-12" value="" style="group" parent="t9INm0RjJ8Zya-NZDCWY-4" vertex="1" connectable="0">
          <mxGeometry x="40" y="200" width="240" height="120" as="geometry" />
        </mxCell>
        <mxCell id="DQI4Vh2TIsN07EarMOOz-13" value="" style="sketch=0;points=[[0,0,0],[0.25,0,0],[0.5,0,0],[0.75,0,0],[1,0,0],[0,1,0],[0.25,1,0],[0.5,1,0],[0.75,1,0],[1,1,0],[0,0.25,0],[0,0.5,0],[0,0.75,0],[1,0.25,0],[1,0.5,0],[1,0.75,0]];outlineConnect=0;fontColor=#232F3E;fillColor=#ED7100;strokeColor=#ffffff;dashed=0;verticalLabelPosition=bottom;verticalAlign=top;align=center;html=1;fontSize=12;fontStyle=0;aspect=fixed;shape=mxgraph.aws4.resourceIcon;resIcon=mxgraph.aws4.fargate;" parent="DQI4Vh2TIsN07EarMOOz-12" vertex="1">
          <mxGeometry width="24" height="24" as="geometry" />
        </mxCell>
        <mxCell id="DQI4Vh2TIsN07EarMOOz-14" value="Fargate" style="fillColor=none;strokeColor=#FFB570;verticalAlign=top;fontStyle=0;fontColor=#5A6C86;whiteSpace=wrap;html=1;" parent="DQI4Vh2TIsN07EarMOOz-12" vertex="1">
          <mxGeometry width="240" height="120" as="geometry" />
        </mxCell>
        <mxCell id="t9INm0RjJ8Zya-NZDCWY-10" value="backend (API)" style="outlineConnect=0;dashed=0;verticalLabelPosition=bottom;verticalAlign=top;align=center;html=1;shape=mxgraph.aws3.ec2_compute_container;fillColor=#F58534;gradientColor=none;" parent="DQI4Vh2TIsN07EarMOOz-12" vertex="1">
          <mxGeometry x="90" y="50" width="60" height="34.5" as="geometry" />
        </mxCell>
        <mxCell id="t9INm0RjJ8Zya-NZDCWY-3" value="Private subnet" style="points=[[0,0],[0.25,0],[0.5,0],[0.75,0],[1,0],[1,0.25],[1,0.5],[1,0.75],[1,1],[0.75,1],[0.5,1],[0.25,1],[0,1],[0,0.75],[0,0.5],[0,0.25]];outlineConnect=0;gradientColor=none;html=1;whiteSpace=wrap;fontSize=12;fontStyle=0;container=1;pointerEvents=0;collapsible=0;recursiveResize=0;shape=mxgraph.aws4.group;grIcon=mxgraph.aws4.group_security_group;grStroke=0;strokeColor=#00A4A6;fillColor=#E6F6F7;verticalAlign=top;align=left;spacingLeft=30;fontColor=#147EBA;dashed=0;" parent="t9INm0RjJ8Zya-NZDCWY-1" vertex="1">
          <mxGeometry x="720" y="160" width="280" height="360" as="geometry" />
        </mxCell>
        <mxCell id="t9INm0RjJ8Zya-NZDCWY-12" value="RDS" style="outlineConnect=0;dashed=0;verticalLabelPosition=bottom;verticalAlign=top;align=center;html=1;shape=mxgraph.aws3.rds;fillColor=#2E73B8;gradientColor=none;" parent="t9INm0RjJ8Zya-NZDCWY-3" vertex="1">
          <mxGeometry x="87.5" y="59" width="72" height="81" as="geometry" />
        </mxCell>
        <mxCell id="t9INm0RjJ8Zya-NZDCWY-11" value="ElastiCache" style="outlineConnect=0;dashed=0;verticalLabelPosition=bottom;verticalAlign=top;align=center;html=1;shape=mxgraph.aws3.elasticache;fillColor=#2E73B8;gradientColor=none;" parent="t9INm0RjJ8Zya-NZDCWY-3" vertex="1">
          <mxGeometry x="92" y="239" width="67.5" height="81" as="geometry" />
        </mxCell>
        <mxCell id="DQI4Vh2TIsN07EarMOOz-16" style="edgeStyle=orthogonalEdgeStyle;rounded=0;orthogonalLoop=1;jettySize=auto;html=1;" parent="t9INm0RjJ8Zya-NZDCWY-1" source="DQI4Vh2TIsN07EarMOOz-7" target="DQI4Vh2TIsN07EarMOOz-8" edge="1">
          <mxGeometry relative="1" as="geometry" />
        </mxCell>
        <mxCell id="DQI4Vh2TIsN07EarMOOz-7" value="Route53" style="outlineConnect=0;dashed=0;verticalLabelPosition=bottom;verticalAlign=top;align=center;html=1;shape=mxgraph.aws3.route_53;fillColor=#F58536;gradientColor=none;" parent="t9INm0RjJ8Zya-NZDCWY-1" vertex="1">
          <mxGeometry x="169.25" y="144" width="70.5" height="85.5" as="geometry" />
        </mxCell>
        <mxCell id="DQI4Vh2TIsN07EarMOOz-20" style="edgeStyle=orthogonalEdgeStyle;rounded=0;orthogonalLoop=1;jettySize=auto;html=1;entryX=0;entryY=0.5;entryDx=0;entryDy=0;" parent="t9INm0RjJ8Zya-NZDCWY-1" source="DQI4Vh2TIsN07EarMOOz-8" target="t9INm0RjJ8Zya-NZDCWY-6" edge="1">
          <mxGeometry relative="1" as="geometry" />
        </mxCell>
        <mxCell id="DQI4Vh2TIsN07EarMOOz-21" style="edgeStyle=orthogonalEdgeStyle;rounded=0;orthogonalLoop=1;jettySize=auto;html=1;entryX=0;entryY=0.5;entryDx=0;entryDy=0;" parent="t9INm0RjJ8Zya-NZDCWY-1" source="DQI4Vh2TIsN07EarMOOz-8" target="DQI4Vh2TIsN07EarMOOz-14" edge="1">
          <mxGeometry relative="1" as="geometry" />
        </mxCell>
        <mxCell id="DQI4Vh2TIsN07EarMOOz-8" value="ALB" style="outlineConnect=0;dashed=0;verticalLabelPosition=bottom;verticalAlign=top;align=center;html=1;shape=mxgraph.aws3.application_load_balancer;fillColor=#F58534;gradientColor=none;" parent="t9INm0RjJ8Zya-NZDCWY-1" vertex="1">
          <mxGeometry x="170.75" y="304" width="69" height="72" as="geometry" />
        </mxCell>
        <mxCell id="DQI4Vh2TIsN07EarMOOz-17" style="edgeStyle=orthogonalEdgeStyle;rounded=0;orthogonalLoop=1;jettySize=auto;html=1;" parent="t9INm0RjJ8Zya-NZDCWY-1" source="DQI4Vh2TIsN07EarMOOz-11" target="DQI4Vh2TIsN07EarMOOz-8" edge="1">
          <mxGeometry relative="1" as="geometry" />
        </mxCell>
        <mxCell id="DQI4Vh2TIsN07EarMOOz-11" value="ACM" style="sketch=0;points=[[0,0,0],[0.25,0,0],[0.5,0,0],[0.75,0,0],[1,0,0],[0,1,0],[0.25,1,0],[0.5,1,0],[0.75,1,0],[1,1,0],[0,0.25,0],[0,0.5,0],[0,0.75,0],[1,0.25,0],[1,0.5,0],[1,0.75,0]];outlineConnect=0;fontColor=#232F3E;fillColor=#DD344C;strokeColor=#ffffff;dashed=0;verticalLabelPosition=bottom;verticalAlign=top;align=center;html=1;fontSize=12;fontStyle=0;aspect=fixed;shape=mxgraph.aws4.resourceIcon;resIcon=mxgraph.aws4.certificate_manager_3;" parent="t9INm0RjJ8Zya-NZDCWY-1" vertex="1">
          <mxGeometry x="40" y="301" width="78" height="78" as="geometry" />
        </mxCell>
        <mxCell id="DQI4Vh2TIsN07EarMOOz-4" value="ECR" style="outlineConnect=0;dashed=0;verticalLabelPosition=bottom;verticalAlign=top;align=center;html=1;shape=mxgraph.aws3.ecr_registry;fillColor=#F58534;gradientColor=none;" parent="t9INm0RjJ8Zya-NZDCWY-1" vertex="1">
          <mxGeometry x="860" y="36.5" width="57" height="60" as="geometry" />
        </mxCell>
        <mxCell id="DQI4Vh2TIsN07EarMOOz-18" value="CloudWatch" style="outlineConnect=0;dashed=0;verticalLabelPosition=bottom;verticalAlign=top;align=center;html=1;shape=mxgraph.aws3.cloudwatch;fillColor=#759C3E;gradientColor=none;" parent="t9INm0RjJ8Zya-NZDCWY-1" vertex="1">
          <mxGeometry x="580" y="20" width="82.5" height="93" as="geometry" />
        </mxCell>
        <mxCell id="DQI4Vh2TIsN07EarMOOz-19" value="SSM" style="sketch=0;points=[[0,0,0],[0.25,0,0],[0.5,0,0],[0.75,0,0],[1,0,0],[0,1,0],[0.25,1,0],[0.5,1,0],[0.75,1,0],[1,1,0],[0,0.25,0],[0,0.5,0],[0,0.75,0],[1,0.25,0],[1,0.5,0],[1,0.75,0]];points=[[0,0,0],[0.25,0,0],[0.5,0,0],[0.75,0,0],[1,0,0],[0,1,0],[0.25,1,0],[0.5,1,0],[0.75,1,0],[1,1,0],[0,0.25,0],[0,0.5,0],[0,0.75,0],[1,0.25,0],[1,0.5,0],[1,0.75,0]];outlineConnect=0;fontColor=#232F3E;fillColor=#E7157B;strokeColor=#ffffff;dashed=0;verticalLabelPosition=bottom;verticalAlign=top;align=center;html=1;fontSize=12;fontStyle=0;aspect=fixed;shape=mxgraph.aws4.resourceIcon;resIcon=mxgraph.aws4.systems_manager;" parent="t9INm0RjJ8Zya-NZDCWY-1" vertex="1">
          <mxGeometry x="722" y="27.5" width="78" height="78" as="geometry" />
        </mxCell>
        <mxCell id="DQI4Vh2TIsN07EarMOOz-25" value="Internet Gateway" style="outlineConnect=0;dashed=0;verticalLabelPosition=bottom;verticalAlign=top;align=center;html=1;shape=mxgraph.aws3.internet_gateway;fillColor=#F58534;gradientColor=none;" parent="t9INm0RjJ8Zya-NZDCWY-1" vertex="1">
          <mxGeometry x="169.25" y="-40" width="69" height="72" as="geometry" />
        </mxCell>
        <mxCell id="DQI4Vh2TIsN07EarMOOz-26" style="edgeStyle=orthogonalEdgeStyle;rounded=0;orthogonalLoop=1;jettySize=auto;html=1;entryX=0.5;entryY=0;entryDx=0;entryDy=0;entryPerimeter=0;" parent="t9INm0RjJ8Zya-NZDCWY-1" source="DQI4Vh2TIsN07EarMOOz-25" target="DQI4Vh2TIsN07EarMOOz-7" edge="1">
          <mxGeometry relative="1" as="geometry" />
        </mxCell>
        <mxCell id="DQI4Vh2TIsN07EarMOOz-27" style="edgeStyle=orthogonalEdgeStyle;rounded=0;orthogonalLoop=1;jettySize=auto;html=1;entryX=0;entryY=0.5;entryDx=0;entryDy=0;entryPerimeter=0;" parent="t9INm0RjJ8Zya-NZDCWY-1" source="DQI4Vh2TIsN07EarMOOz-14" target="t9INm0RjJ8Zya-NZDCWY-12" edge="1">
          <mxGeometry relative="1" as="geometry">
            <Array as="points">
              <mxPoint x="680" y="420" />
              <mxPoint x="680" y="260" />
            </Array>
          </mxGeometry>
        </mxCell>
        <mxCell id="DQI4Vh2TIsN07EarMOOz-28" style="edgeStyle=orthogonalEdgeStyle;rounded=0;orthogonalLoop=1;jettySize=auto;html=1;" parent="t9INm0RjJ8Zya-NZDCWY-1" source="DQI4Vh2TIsN07EarMOOz-14" target="t9INm0RjJ8Zya-NZDCWY-11" edge="1">
          <mxGeometry relative="1" as="geometry">
            <Array as="points">
              <mxPoint x="680" y="420" />
              <mxPoint x="680" y="440" />
            </Array>
          </mxGeometry>
        </mxCell>
        <mxCell id="DQI4Vh2TIsN07EarMOOz-3" value="workflow" style="edgeStyle=orthogonalEdgeStyle;rounded=0;orthogonalLoop=1;jettySize=auto;html=1;" parent="1" source="t9INm0RjJ8Zya-NZDCWY-13" target="DQI4Vh2TIsN07EarMOOz-1" edge="1">
          <mxGeometry relative="1" as="geometry" />
        </mxCell>
        <mxCell id="t9INm0RjJ8Zya-NZDCWY-13" value="Github" style="dashed=0;outlineConnect=0;html=1;align=center;labelPosition=center;verticalLabelPosition=bottom;verticalAlign=top;shape=mxgraph.weblogos.github" parent="1" vertex="1">
          <mxGeometry x="-209.5" y="123" width="75" height="75" as="geometry" />
        </mxCell>
        <mxCell id="DQI4Vh2TIsN07EarMOOz-2" value="push" style="edgeStyle=orthogonalEdgeStyle;rounded=0;orthogonalLoop=1;jettySize=auto;html=1;" parent="1" source="t9INm0RjJ8Zya-NZDCWY-14" target="t9INm0RjJ8Zya-NZDCWY-13" edge="1">
          <mxGeometry relative="1" as="geometry" />
        </mxCell>
        <mxCell id="t9INm0RjJ8Zya-NZDCWY-14" value="Developer" style="sketch=0;outlineConnect=0;fontColor=#232F3E;gradientColor=none;fillColor=#232F3D;strokeColor=none;dashed=0;verticalLabelPosition=bottom;verticalAlign=top;align=center;html=1;fontSize=12;fontStyle=0;aspect=fixed;pointerEvents=1;shape=mxgraph.aws4.user;" parent="1" vertex="1">
          <mxGeometry x="-360" y="120" width="78" height="78" as="geometry" />
        </mxCell>
        <mxCell id="DQI4Vh2TIsN07EarMOOz-24" style="edgeStyle=orthogonalEdgeStyle;rounded=0;orthogonalLoop=1;jettySize=auto;html=1;exitX=1;exitY=0.5;exitDx=0;exitDy=0;" parent="1" source="DQI4Vh2TIsN07EarMOOz-1" target="DQI4Vh2TIsN07EarMOOz-4" edge="1">
          <mxGeometry relative="1" as="geometry" />
        </mxCell>
        <mxCell id="DQI4Vh2TIsN07EarMOOz-1" value="Github Actions" style="shape=image;imageAspect=0;aspect=fixed;verticalLabelPosition=bottom;verticalAlign=top;image=https://github.githubassets.com/images/modules/site/features/actions-icon-actions.svg;" parent="1" vertex="1">
          <mxGeometry x="-39.5" y="123" width="75" height="75" as="geometry" />
        </mxCell>
        <mxCell id="DQI4Vh2TIsN07EarMOOz-6" value="User" style="sketch=0;outlineConnect=0;fontColor=#232F3E;gradientColor=none;fillColor=#232F3D;strokeColor=none;dashed=0;verticalLabelPosition=bottom;verticalAlign=top;align=center;html=1;fontSize=12;fontStyle=0;aspect=fixed;pointerEvents=1;shape=mxgraph.aws4.user;" parent="1" vertex="1">
          <mxGeometry x="-770" y="120" width="78" height="78" as="geometry" />
        </mxCell>
        <mxCell id="DQI4Vh2TIsN07EarMOOz-9" style="edgeStyle=orthogonalEdgeStyle;rounded=0;orthogonalLoop=1;jettySize=auto;html=1;" parent="1" source="DQI4Vh2TIsN07EarMOOz-6" target="DQI4Vh2TIsN07EarMOOz-25" edge="1">
          <mxGeometry relative="1" as="geometry" />
        </mxCell>
      </root>
    </mxGraphModel>
  </diagram>
</mxfile>
